<svg height="3758" width="720" xmlns="http://www.w3.org/2000/svg">
<rect height="3758" fill="#555" width="720"></rect>
<text fill="#7f7" font-family="Courier New" font-size="12" xml:space="preserve">
<tspan x="10" y="26">└─┬ gulp-svg-sprite@1.3.6 </tspan>
<tspan x="10" y="42">  ├─┬ gulp-util@3.0.8 </tspan>
<tspan x="10" y="58">  │ ├── array-differ@1.0.0 </tspan>
<tspan x="10" y="74">  │ ├── array-uniq@1.0.3 </tspan>
<tspan x="10" y="90">  │ ├── beeper@1.1.1 </tspan>
<tspan x="10" y="106">  │ ├─┬ chalk@1.1.3 </tspan>
<tspan x="10" y="122">  │ │ ├── ansi-styles@2.2.1 </tspan>
<tspan x="10" y="138">  │ │ ├── escape-string-regexp@1.0.5 </tspan>
<tspan x="10" y="154">  │ │ ├─┬ has-ansi@2.0.0 </tspan>
<tspan x="10" y="170">  │ │ │ └── ansi-regex@2.1.1 </tspan>
<tspan x="10" y="186">  │ │ ├── strip-ansi@3.0.1 </tspan>
<tspan x="10" y="202">  │ │ └── supports-color@2.0.0 </tspan>
<tspan x="10" y="218">  │ ├── dateformat@2.0.0 </tspan>
<tspan x="10" y="234">  │ ├─┬ fancy-log@1.3.0 </tspan>
<tspan x="10" y="250">  │ │ └── time-stamp@1.0.1 </tspan>
<tspan x="10" y="266">  │ ├─┬ gulplog@1.0.0 </tspan>
<tspan x="10" y="282">  │ │ └── glogg@1.0.0 </tspan>
<tspan x="10" y="298">  │ ├─┬ has-gulplog@0.1.0 </tspan>
<tspan x="10" y="314">  │ │ └── sparkles@1.0.0 </tspan>
<tspan x="10" y="330">  │ ├── lodash._reescape@3.0.0 </tspan>
<tspan x="10" y="346">  │ ├── lodash._reevaluate@3.0.0 </tspan>
<tspan x="10" y="362">  │ ├── lodash._reinterpolate@3.0.0 </tspan>
<tspan x="10" y="378">  │ ├─┬ lodash.template@3.6.2 </tspan>
<tspan x="10" y="394">  │ │ ├── lodash._basecopy@3.0.1 </tspan>
<tspan x="10" y="410">  │ │ ├── lodash._basetostring@3.0.1 </tspan>
<tspan x="10" y="426">  │ │ ├── lodash._basevalues@3.0.0 </tspan>
<tspan x="10" y="442">  │ │ ├── lodash._isiterateecall@3.0.9 </tspan>
<tspan x="10" y="458">  │ │ ├─┬ lodash.escape@3.2.0 </tspan>
<tspan x="10" y="474">  │ │ │ └── lodash._root@3.0.1 </tspan>
<tspan x="10" y="490">  │ │ ├─┬ lodash.keys@3.1.2 </tspan>
<tspan x="10" y="506">  │ │ │ ├── lodash._getnative@3.9.1 </tspan>
<tspan x="10" y="522">  │ │ │ └── lodash.isarguments@3.1.0 </tspan>
<tspan x="10" y="538">  │ │ ├── lodash.restparam@3.6.1 </tspan>
<tspan x="10" y="554">  │ │ └── lodash.templatesettings@3.1.1 </tspan>
<tspan x="10" y="570">  │ ├── minimist@1.2.0 </tspan>
<tspan x="10" y="586">  │ ├─┬ multipipe@0.1.2 </tspan>
<tspan x="10" y="602">  │ │ └─┬ duplexer2@0.0.2 </tspan>
<tspan x="10" y="618">  │ │   └─┬ readable-stream@1.1.14 </tspan>
<tspan x="10" y="634">  │ │     └── isarray@0.0.1 </tspan>
<tspan x="10" y="650">  │ ├── object-assign@3.0.0 </tspan>
<tspan x="10" y="666">  │ ├── replace-ext@0.0.1 </tspan>
<tspan x="10" y="682">  │ └── vinyl@0.5.3 </tspan>
<tspan x="10" y="698">  ├─┬ svg-sprite@1.3.6 </tspan>
<tspan x="10" y="714">  │ ├── async@2.3.0 </tspan>
<tspan x="10" y="730">  │ ├── css-selector-parser@1.3.0 </tspan>
<tspan x="10" y="746">  │ ├── cssmin@0.4.3 </tspan>
<tspan x="10" y="762">  │ ├── cssom@0.3.2 </tspan>
<tspan x="10" y="778">  │ ├─┬ glob@7.1.1 </tspan>
<tspan x="10" y="794">  │ │ ├── fs.realpath@1.0.0 </tspan>
<tspan x="10" y="810">  │ │ ├─┬ inflight@1.0.6 </tspan>
<tspan x="10" y="826">  │ │ │ └── wrappy@1.0.2 </tspan>
<tspan x="10" y="842">  │ │ ├── inherits@2.0.3 </tspan>
<tspan x="10" y="858">  │ │ ├─┬ minimatch@3.0.3 </tspan>
<tspan x="10" y="874">  │ │ │ └─┬ brace-expansion@1.1.6 </tspan>
<tspan x="10" y="890">  │ │ │   ├── balanced-match@0.4.2 </tspan>
<tspan x="10" y="906">  │ │ │   └── concat-map@0.0.1 </tspan>
<tspan x="10" y="922">  │ │ ├── once@1.4.0 </tspan>
<tspan x="10" y="938">  │ │ └── path-is-absolute@1.0.1 </tspan>
<tspan x="10" y="954">  │ ├─┬ js-yaml@3.8.2 </tspan>
<tspan x="10" y="970">  │ │ ├─┬ argparse@1.0.9 </tspan>
<tspan x="10" y="986">  │ │ │ └── sprintf-js@1.0.3 </tspan>
<tspan x="10" y="1002">  │ │ └── esprima@3.1.3 </tspan>
<tspan x="10" y="1018">  │ ├── lodash@4.17.4 </tspan>
<tspan x="10" y="1034">  │ ├─┬ lodash.pluck@3.1.2 </tspan>
<tspan x="10" y="1050">  │ │ ├── lodash._baseget@3.7.2 </tspan>
<tspan x="10" y="1066">  │ │ ├── lodash._topath@3.8.1 </tspan>
<tspan x="10" y="1082">  │ │ ├── lodash.isarray@3.0.4 </tspan>
<tspan x="10" y="1098">  │ │ └─┬ lodash.map@3.1.4 </tspan>
<tspan x="10" y="1114">  │ │   ├── lodash._arraymap@3.0.0 </tspan>
<tspan x="10" y="1130">  │ │   ├─┬ lodash._basecallback@3.3.1 </tspan>
<tspan x="10" y="1146">  │ │   │ ├─┬ lodash._baseisequal@3.0.7 </tspan>
<tspan x="10" y="1162">  │ │   │ │ └── lodash.istypedarray@3.0.6 </tspan>
<tspan x="10" y="1178">  │ │   │ ├── lodash._bindcallback@3.0.1 </tspan>
<tspan x="10" y="1194">  │ │   │ └── lodash.pairs@3.0.1 </tspan>
<tspan x="10" y="1210">  │ │   └── lodash._baseeach@3.0.4 </tspan>
<tspan x="10" y="1226">  │ ├─┬ mkdirp@0.5.1 </tspan>
<tspan x="10" y="1242">  │ │ └── minimist@0.0.8 </tspan>
<tspan x="10" y="1258">  │ ├── mustache@2.3.0 </tspan>
<tspan x="10" y="1274">  │ ├─┬ phantomjs-prebuilt@2.1.14 </tspan>
<tspan x="10" y="1290">  │ │ ├── es6-promise@4.0.5 </tspan>
<tspan x="10" y="1306">  │ │ ├─┬ extract-zip@1.5.0 </tspan>
<tspan x="10" y="1322">  │ │ │ ├─┬ concat-stream@1.5.0 </tspan>
<tspan x="10" y="1338">  │ │ │ │ ├─┬ readable-stream@2.0.6 </tspan>
<tspan x="10" y="1354">  │ │ │ │ │ └── isarray@1.0.0 </tspan>
<tspan x="10" y="1370">  │ │ │ │ └── typedarray@0.0.6 </tspan>
<tspan x="10" y="1386">  │ │ │ ├── debug@0.7.4 </tspan>
<tspan x="10" y="1402">  │ │ │ ├─┬ mkdirp@0.5.0 </tspan>
<tspan x="10" y="1418">  │ │ │ │ └── minimist@0.0.8 </tspan>
<tspan x="10" y="1434">  │ │ │ └─┬ yauzl@2.4.1 </tspan>
<tspan x="10" y="1450">  │ │ │   └─┬ fd-slicer@1.0.1 </tspan>
<tspan x="10" y="1466">  │ │ │     └── pend@1.2.0 </tspan>
<tspan x="10" y="1482">  │ │ ├─┬ fs-extra@1.0.0 </tspan>
<tspan x="10" y="1498">  │ │ │ ├── graceful-fs@4.1.11 </tspan>
<tspan x="10" y="1514">  │ │ │ ├── jsonfile@2.4.0 </tspan>
<tspan x="10" y="1530">  │ │ │ └── klaw@1.3.1 </tspan>
<tspan x="10" y="1546">  │ │ ├─┬ hasha@2.2.0 </tspan>
<tspan x="10" y="1562">  │ │ │ ├── is-stream@1.1.0 </tspan>
<tspan x="10" y="1578">  │ │ │ └─┬ pinkie-promise@2.0.1 </tspan>
<tspan x="10" y="1594">  │ │ │   └── pinkie@2.0.4 </tspan>
<tspan x="10" y="1610">  │ │ ├── kew@0.7.0 </tspan>
<tspan x="10" y="1626">  │ │ ├── progress@1.1.8 </tspan>
<tspan x="10" y="1642">  │ │ ├─┬ request@2.79.0 </tspan>
<tspan x="10" y="1658">  │ │ │ ├── aws-sign2@0.6.0 </tspan>
<tspan x="10" y="1674">  │ │ │ ├── aws4@1.6.0 </tspan>
<tspan x="10" y="1690">  │ │ │ ├── caseless@0.11.0 </tspan>
<tspan x="10" y="1706">  │ │ │ ├─┬ combined-stream@1.0.5 </tspan>
<tspan x="10" y="1722">  │ │ │ │ └── delayed-stream@1.0.0 </tspan>
<tspan x="10" y="1738">  │ │ │ ├── extend@3.0.0 </tspan>
<tspan x="10" y="1754">  │ │ │ ├── forever-agent@0.6.1 </tspan>
<tspan x="10" y="1770">  │ │ │ ├─┬ form-data@2.1.2 </tspan>
<tspan x="10" y="1786">  │ │ │ │ └── asynckit@0.4.0 </tspan>
<tspan x="10" y="1802">  │ │ │ ├─┬ har-validator@2.0.6 </tspan>
<tspan x="10" y="1818">  │ │ │ │ ├─┬ commander@2.9.0 </tspan>
<tspan x="10" y="1834">  │ │ │ │ │ └── graceful-readlink@1.0.1 </tspan>
<tspan x="10" y="1850">  │ │ │ │ └─┬ is-my-json-valid@2.16.0 </tspan>
<tspan x="10" y="1866">  │ │ │ │   ├── generate-function@2.0.0 </tspan>
<tspan x="10" y="1882">  │ │ │ │   ├─┬ generate-object-property@1.2.0 </tspan>
<tspan x="10" y="1898">  │ │ │ │   │ └── is-property@1.0.2 </tspan>
<tspan x="10" y="1914">  │ │ │ │   └── jsonpointer@4.0.1 </tspan>
<tspan x="10" y="1930">  │ │ │ ├─┬ hawk@3.1.3 </tspan>
<tspan x="10" y="1946">  │ │ │ │ ├── boom@2.10.1 </tspan>
<tspan x="10" y="1962">  │ │ │ │ ├── cryptiles@2.0.5 </tspan>
<tspan x="10" y="1978">  │ │ │ │ ├── hoek@2.16.3 </tspan>
<tspan x="10" y="1994">  │ │ │ │ └── sntp@1.0.9 </tspan>
<tspan x="10" y="2010">  │ │ │ ├─┬ http-signature@1.1.1 </tspan>
<tspan x="10" y="2026">  │ │ │ │ ├── assert-plus@0.2.0 </tspan>
<tspan x="10" y="2042">  │ │ │ │ ├─┬ jsprim@1.4.0 </tspan>
<tspan x="10" y="2058">  │ │ │ │ │ ├── assert-plus@1.0.0 </tspan>
<tspan x="10" y="2074">  │ │ │ │ │ ├── extsprintf@1.0.2 </tspan>
<tspan x="10" y="2090">  │ │ │ │ │ ├── json-schema@0.2.3 </tspan>
<tspan x="10" y="2106">  │ │ │ │ │ └── verror@1.3.6 </tspan>
<tspan x="10" y="2122">  │ │ │ │ └─┬ sshpk@1.11.0 </tspan>
<tspan x="10" y="2138">  │ │ │ │   ├── asn1@0.2.3 </tspan>
<tspan x="10" y="2154">  │ │ │ │   ├── assert-plus@1.0.0 </tspan>
<tspan x="10" y="2170">  │ │ │ │   ├── bcrypt-pbkdf@1.0.1 </tspan>
<tspan x="10" y="2186">  │ │ │ │   ├─┬ dashdash@1.14.1 </tspan>
<tspan x="10" y="2202">  │ │ │ │   │ └── assert-plus@1.0.0 </tspan>
<tspan x="10" y="2218">  │ │ │ │   ├── ecc-jsbn@0.1.1 </tspan>
<tspan x="10" y="2234">  │ │ │ │   ├─┬ getpass@0.1.6 </tspan>
<tspan x="10" y="2250">  │ │ │ │   │ └── assert-plus@1.0.0 </tspan>
<tspan x="10" y="2266">  │ │ │ │   ├── jodid25519@1.0.2 </tspan>
<tspan x="10" y="2282">  │ │ │ │   ├── jsbn@0.1.1 </tspan>
<tspan x="10" y="2298">  │ │ │ │   └── tweetnacl@0.14.5 </tspan>
<tspan x="10" y="2314">  │ │ │ ├── is-typedarray@1.0.0 </tspan>
<tspan x="10" y="2330">  │ │ │ ├── json-stringify-safe@5.0.1 </tspan>
<tspan x="10" y="2346">  │ │ │ ├─┬ mime-types@2.1.15 </tspan>
<tspan x="10" y="2362">  │ │ │ │ └── mime-db@1.27.0 </tspan>
<tspan x="10" y="2378">  │ │ │ ├── oauth-sign@0.8.2 </tspan>
<tspan x="10" y="2394">  │ │ │ ├── qs@6.3.2 </tspan>
<tspan x="10" y="2410">  │ │ │ ├── stringstream@0.0.5 </tspan>
<tspan x="10" y="2426">  │ │ │ ├─┬ tough-cookie@2.3.2 </tspan>
<tspan x="10" y="2442">  │ │ │ │ └── punycode@1.4.1 </tspan>
<tspan x="10" y="2458">  │ │ │ ├── tunnel-agent@0.4.3 </tspan>
<tspan x="10" y="2474">  │ │ │ └── uuid@3.0.1 </tspan>
<tspan x="10" y="2490">  │ │ ├─┬ request-progress@2.0.1 </tspan>
<tspan x="10" y="2506">  │ │ │ └── throttleit@1.0.0 </tspan>
<tspan x="10" y="2522">  │ │ └─┬ which@1.2.14 </tspan>
<tspan x="10" y="2538">  │ │   └── isexe@2.0.0 </tspan>
<tspan x="10" y="2554">  │ ├── prettysize@0.0.3 </tspan>
<tspan x="10" y="2570">  │ ├─┬ svgo@0.7.0 </tspan>
<tspan x="10" y="2586">  │ │ ├─┬ coa@1.0.1 </tspan>
<tspan x="10" y="2602">  │ │ │ └── q@1.5.0 </tspan>
<tspan x="10" y="2618">  │ │ ├── colors@1.1.2 </tspan>
<tspan x="10" y="2634">  │ │ ├─┬ csso@2.2.1 </tspan>
<tspan x="10" y="2650">  │ │ │ ├── clap@1.1.3 </tspan>
<tspan x="10" y="2666">  │ │ │ └── source-map@0.5.6 </tspan>
<tspan x="10" y="2682">  │ │ ├─┬ js-yaml@3.6.1 </tspan>
<tspan x="10" y="2698">  │ │ │ └── esprima@2.7.3 </tspan>
<tspan x="10" y="2714">  │ │ ├── sax@1.2.2 </tspan>
<tspan x="10" y="2730">  │ │ └── whet.extend@0.9.9 </tspan>
<tspan x="10" y="2746">  │ ├─┬ winston@2.3.1 </tspan>
<tspan x="10" y="2762">  │ │ ├── async@1.0.0 </tspan>
<tspan x="10" y="2778">  │ │ ├── colors@1.0.3 </tspan>
<tspan x="10" y="2794">  │ │ ├── cycle@1.0.3 </tspan>
<tspan x="10" y="2810">  │ │ ├── eyes@0.1.8 </tspan>
<tspan x="10" y="2826">  │ │ ├── isstream@0.1.2 </tspan>
<tspan x="10" y="2842">  │ │ └── stack-trace@0.0.9 </tspan>
<tspan x="10" y="2858">  │ ├── xmldom@0.1.22 </tspan>
<tspan x="10" y="2874">  │ ├── xpath@0.0.23 </tspan>
<tspan x="10" y="2890">  │ └─┬ yargs@5.0.0 </tspan>
<tspan x="10" y="2906">  │   ├─┬ cliui@3.2.0 </tspan>
<tspan x="10" y="2922">  │   │ └── wrap-ansi@2.1.0 </tspan>
<tspan x="10" y="2938">  │   ├── decamelize@1.2.0 </tspan>
<tspan x="10" y="2954">  │   ├── get-caller-file@1.0.2 </tspan>
<tspan x="10" y="2970">  │   ├── lodash.assign@4.2.0 </tspan>
<tspan x="10" y="2986">  │   ├─┬ os-locale@1.4.0 </tspan>
<tspan x="10" y="3002">  │   │ └─┬ lcid@1.0.0 </tspan>
<tspan x="10" y="3018">  │   │   └── invert-kv@1.0.0 </tspan>
<tspan x="10" y="3034">  │   ├─┬ read-pkg-up@1.0.1 </tspan>
<tspan x="10" y="3050">  │   │ ├─┬ find-up@1.1.2 </tspan>
<tspan x="10" y="3066">  │   │ │ └── path-exists@2.1.0 </tspan>
<tspan x="10" y="3082">  │   │ └─┬ read-pkg@1.1.0 </tspan>
<tspan x="10" y="3098">  │   │   ├─┬ load-json-file@1.1.0 </tspan>
<tspan x="10" y="3114">  │   │   │ ├─┬ parse-json@2.2.0 </tspan>
<tspan x="10" y="3130">  │   │   │ │ └─┬ error-ex@1.3.1 </tspan>
<tspan x="10" y="3146">  │   │   │ │   └── is-arrayish@0.2.1 </tspan>
<tspan x="10" y="3162">  │   │   │ ├── pify@2.3.0 </tspan>
<tspan x="10" y="3178">  │   │   │ └─┬ strip-bom@2.0.0 </tspan>
<tspan x="10" y="3194">  │   │   │   └── is-utf8@0.2.1 </tspan>
<tspan x="10" y="3210">  │   │   ├─┬ normalize-package-data@2.3.6 </tspan>
<tspan x="10" y="3226">  │   │   │ ├── hosted-git-info@2.4.1 </tspan>
<tspan x="10" y="3242">  │   │   │ ├─┬ is-builtin-module@1.0.0 </tspan>
<tspan x="10" y="3258">  │   │   │ │ └── builtin-modules@1.1.1 </tspan>
<tspan x="10" y="3274">  │   │   │ ├── semver@5.3.0 </tspan>
<tspan x="10" y="3290">  │   │   │ └─┬ validate-npm-package-license@3.0.1 </tspan>
<tspan x="10" y="3306">  │   │   │   ├─┬ spdx-correct@1.0.2 </tspan>
<tspan x="10" y="3322">  │   │   │   │ └── spdx-license-ids@1.2.2 </tspan>
<tspan x="10" y="3338">  │   │   │   └── spdx-expression-parse@1.0.4 </tspan>
<tspan x="10" y="3354">  │   │   └── path-type@1.1.0 </tspan>
<tspan x="10" y="3370">  │   ├── require-directory@2.1.1 </tspan>
<tspan x="10" y="3386">  │   ├── require-main-filename@1.0.1 </tspan>
<tspan x="10" y="3402">  │   ├── set-blocking@2.0.0 </tspan>
<tspan x="10" y="3418">  │   ├─┬ string-width@1.0.2 </tspan>
<tspan x="10" y="3434">  │   │ ├── code-point-at@1.1.0 </tspan>
<tspan x="10" y="3450">  │   │ └─┬ is-fullwidth-code-point@1.0.0 </tspan>
<tspan x="10" y="3466">  │   │   └── number-is-nan@1.0.1 </tspan>
<tspan x="10" y="3482">  │   ├── which-module@1.0.0 </tspan>
<tspan x="10" y="3498">  │   ├── window-size@0.2.0 </tspan>
<tspan x="10" y="3514">  │   ├── y18n@3.2.1 </tspan>
<tspan x="10" y="3530">  │   └─┬ yargs-parser@3.2.0 </tspan>
<tspan x="10" y="3546">  │     └── camelcase@3.0.0 </tspan>
<tspan x="10" y="3562">  ├─┬ through2@2.0.3 </tspan>
<tspan x="10" y="3578">  │ ├─┬ readable-stream@2.2.6 </tspan>
<tspan x="10" y="3594">  │ │ ├── buffer-shims@1.0.0 </tspan>
<tspan x="10" y="3610">  │ │ ├── core-util-is@1.0.2 </tspan>
<tspan x="10" y="3626">  │ │ ├── isarray@1.0.0 </tspan>
<tspan x="10" y="3642">  │ │ ├── process-nextick-args@1.0.7 </tspan>
<tspan x="10" y="3658">  │ │ ├── string_decoder@0.10.31 </tspan>
<tspan x="10" y="3674">  │ │ └── util-deprecate@1.0.2 </tspan>
<tspan x="10" y="3690">  │ └── xtend@4.0.1 </tspan>
<tspan x="10" y="3706">  └─┬ vinyl@1.2.0 </tspan>
<tspan x="10" y="3722">    ├── clone@1.0.2 </tspan>
<tspan x="10" y="3738">    └── clone-stats@0.0.1</tspan>
</text>
</svg>
